<svg xmlns="http://www.w3.org/2000/svg" viewBox="0 0 582 191" width="582" height="191"><g transform="translate(28.00,28.00) scale(2.3651)"><path d="M 0.00,57.04 L 1.17,57.04 L 2.34,57.04 L 3.52,57.04 L 4.69,57.04 L 5.86,57.04 L 7.03,57.04 L 8.21,57.04 L 9.38,57.04 L 10.55,57.04 L 11.72,57.04 L 12.90,57.04 L 14.07,57.04 L 15.24,57.04 L 16.41,57.04 L 17.59,57.04 L 18.76,57.04 L 19.93,57.04 L 21.10,57.04 L 22.28,57.04 L 23.45,57.04 L 24.62,57.04 L 25.79,57.04 L 26.97,57.04 L 28.14,57.04 L 29.31,57.04 L 30.48,57.04 L 31.66,57.04 L 32.83,57.04 L 34.01,57.04 L 34.48,57.04 L 34.97,57.02 L 35.45,56.99 L 35.93,56.95 L 36.41,56.90 L 36.89,56.84 L 37.37,56.77 L 37.85,56.68 L 38.32,56.59 L 38.80,56.48 L 39.27,56.36 L 39.73,56.24 L 40.20,56.10 L 40.66,55.95 L 41.11,55.79 L 41.57,55.62 L 42.02,55.44 L 42.46,55.24 L 42.90,55.04 L 43.34,54.83 L 43.77,54.61 L 44.19,54.38 L 44.61,54.13 L 45.01,53.89 L 45.81,53.39 L 46.58,52.88 L 47.35,52.38 L 48.12,51.87 L 48.89,51.36 L 49.66,50.85 L 50.43,50.34 L 51.20,49.84 L 51.97,49.33 L 52.74,48.82 L 53.52,48.31 L 54.29,47.80 L 55.16,47.23 L 55.78,46.76 L 56.24,46.39 L 56.70,46.01 L 57.14,45.62 L 57.58,45.22 L 58.01,44.82 L 58.42,44.40 L 58.83,43.98 L 59.23,43.55 L 59.62,43.11 L 60.00,42.66 L 60.37,42.21 L 60.72,41.75 L 61.07,41.29 L 61.41,40.82 L 61.74,40.34 L 62.06,39.85 L 62.36,39.36 L 62.66,38.87 L 62.94,38.37 L 63.22,37.86 L 63.48,37.35 L 63.73,36.84 L 63.97,36.32 L 64.20,35.79 L 64.42,35.27 L 64.63,34.74 L 64.82,34.20 L 65.00,33.67 L 65.18,33.13 L 65.34,32.58 L 65.49,32.04 L 65.62,31.49 L 65.75,30.94 L 65.86,30.39 L 65.97,29.84 L 66.06,29.29 L 66.13,28.73 L 66.20,28.18 L 66.26,27.63 L 66.30,27.07 L 66.33,26.52 L 66.35,25.96 L 66.36,25.41 L 66.36,24.86 L 66.35,24.31 L 66.32,23.76 L 66.28,23.21 L 66.24,22.66 L 66.18,22.12 L 66.11,21.57 L 66.02,21.03 L 65.93,20.50 L 65.83,19.96 L 65.71,19.43 L 65.59,18.90 L 65.45,18.38 L 65.30,17.86 L 65.14,17.34 L 64.98,16.83 L 64.80,16.32 L 64.61,15.82 L 64.41,15.32 L 64.20,14.83 L 63.98,14.35 L 63.75,13.86 L 63.51,13.39 L 63.27,12.92 L 63.01,12.45 L 62.74,12.00 L 62.47,11.54 L 62.18,11.10 L 61.89,10.66 L 61.59,10.23 L 61.28,9.81 L 60.96,9.39 L 60.64,8.98 L 60.30,8.58 L 59.96,8.19 L 59.61,7.80 L 59.26,7.42 L 58.89,7.05 L 58.52,6.69 L 58.14,6.34 L 57.76,6.00 L 57.37,5.66 L 56.97,5.33 L 56.57,5.02 L 56.16,4.71 L 55.75,4.41 L 55.33,4.12 L 54.90,3.84 L 54.47,3.57 L 54.04,3.30 L 53.60,3.05 L 53.16,2.81 L 52.71,2.57 L 52.26,2.35 L 51.80,2.14 L 51.34,1.93 L 50.88,1.74 L 50.42,1.56 L 49.95,1.38 L 49.48,1.22 L 49.00,1.07 L 48.53,0.93 L 48.05,0.79 L 47.57,0.67 L 47.09,0.56 L 46.61,0.46 L 46.12,0.36 L 45.64,0.28 L 45.15,0.21 L 44.67,0.15 L 44.18,0.10 L 43.70,0.06 L 43.21,0.03 L 42.73,0.01 L 42.24,0.00 L 41.76,0.00 L 41.28,0.01 L 40.79,0.03 L 40.31,0.06 L 39.83,0.10 L 39.36,0.15 L 38.88,0.21 L 38.41,0.28 L 37.94,0.36 L 37.47,0.45 L 37.01,0.55 L 36.55,0.66 L 36.09,0.78 L 35.63,0.90 L 35.18,1.04 L 34.74,1.19 L 34.29,1.34 L 33.85,1.50 L 33.42,1.68 L 32.99,1.86 L 32.56,2.05 L 32.14,2.25 L 31.73,2.45 L 31.31,2.67 L 30.91,2.89 L 30.51,3.12 L 30.12,3.36 L 29.73,3.61 L 29.35,3.86 L 28.97,4.12 L 28.60,4.39 L 28.24,4.66 L 27.88,4.95 L 27.53,5.24 L 27.19,5.53 L 26.85,5.84 L 26.52,6.15 L 26.20,6.46 L 25.88,6.78 L 25.57,7.11 L 25.27,7.44 L 24.98,7.78 L 24.70,8.13 L 24.42,8.47 L 24.15,8.83 L 23.89,9.19 L 23.64,9.55 L 23.39,9.92 L 23.16,10.29 L 22.93,10.67 L 22.71,11.05 L 22.50,11.43 L 22.29,11.82 L 22.10,12.21 L 21.91,12.61 L 21.74,13.00 L 21.57,13.40 L 21.41,13.81 L 21.26,14.21 L 21.11,14.62 L 20.98,15.03 L 20.86,15.44 L 20.74,15.85 L 20.63,16.27 L 20.54,16.68 L 20.45,17.10 L 20.37,17.52 L 20.30,17.94 L 20.24,18.36 L 20.18,18.78 L 20.14,19.20 L 20.10,19.62 L 20.08,20.04 L 20.06,20.45 L 20.05,20.87 L 20.05,21.29 L 20.06,21.71 L 20.07,22.12 L 20.10,22.54 L 20.13,22.95 L 20.18,23.36 L 20.23,23.77 L 20.29,24.18 L 20.36,24.58 L 20.43,24.99 L 20.52,25.39 L 20.61,25.78 L 20.71,26.18 L 20.82,26.57 L 20.94,26.96 L 21.06,27.34 L 21.20,27.72 L 21.34,28.10 L 21.49,28.47 L 21.64,28.84 L 21.80,29.21 L 21.97,29.57 L 22.15,29.93 L 22.33,30.28 L 22.53,30.63 L 22.72,30.97 L 22.93,31.31 L 23.14,31.64 L 23.36,31.97 L 23.58,32.29 L 23.81,32.61 L 24.05,32.92 L 24.29,33.23 L 24.54,33.53 L 24.79,33.82 L 25.05,34.11 L 25.32,34.39 L 25.59,34.67 L 25.86,34.94 L 26.14,35.20 L 26.43,35.46 L 26.72,35.71 L 27.01,35.95 L 27.31,36.18 L 27.61,36.41 L 27.92,36.64 L 28.23,36.85 L 28.54,37.06 L 28.86,37.26 L 29.18,37.46 L 29.51,37.64 L 29.84,37.82 L 30.17,38.00 L 30.50,38.16 L 30.84,38.32 L 31.17,38.47 L 31.52,38.61 L 31.86,38.75 L 32.20,38.88 L 32.55,39.00 L 32.90,39.11 L 33.25,39.21 L 33.60,39.31 L 33.95,39.40 L 34.31,39.48 L 34.66,39.56 L 35.02,39.63 L 35.37,39.69 L 35.73,39.74 L 36.08,39.78 L 36.44,39.82 L 36.80,39.85 L 37.15,39.87 L 37.51,39.88 L 37.86,39.89 L 38.21,39.89 L 38.57,39.88 L 38.92,39.87 L 39.27,39.84 L 39.62,39.81 L 39.97,39.78 L 40.31,39.73 L 40.66,39.68 L 41.00,39.62 L 41.34,39.56 L 41.68,39.48 L 42.01,39.40 L 42.34,39.32 L 42.67,39.22 L 43.00,39.12 L 43.32,39.02 L 43.65,38.90 L 43.96,38.78 L 44.28,38.66 L 44.59,38.53 L 44.90,38.39 L 45.20,38.24 L 45.50,38.09 L 45.80,37.94 L 46.09,37.78 L 46.37,37.61 L 46.66,37.43 L 46.94,37.26 L 47.21,37.07 L 47.48,36.88 L 47.75,36.69 L 48.01,36.49 L 48.26,36.28 L 48.51,36.07 L 48.76,35.86 L 49.00,35.64 L 49.23,35.42 L 49.46,35.19 L 49.69,34.96 L 49.91,34.72 L 50.12,34.48 L 50.33,34.24 L 50.53,33.99 L 50.72,33.74 L 50.91,33.49 L 51.10,33.23 L 51.28,32.97 L 51.45,32.71 L 51.62,32.44 L 51.78,32.17 L 51.93,31.90 L 52.08,31.63 L 52.22,31.35 L 52.36,31.07 L 52.49,30.79 L 52.61,30.51 L 52.73,30.22 L 52.84,29.94 L 52.94,29.65 L 53.04,29.36 L 53.13,29.07 L 53.22,28.78 L 53.29,28.49 L 53.37,28.20 L 53.43,27.90 L 53.49,27.61 L 53.55,27.31 L 53.59,27.02 L 53.63,26.72 L 53.67,26.43 L 53.70,26.13 L 53.72,25.84 L 53.73,25.54 L 53.74,25.25 L 53.74,24.96 L 53.74,24.67 L 53.73,24.38 L 53.72,24.09 L 53.70,23.80 L 53.67,23.51 L 53.63,23.22 L 53.59,22.94 L 53.55,22.65 L 53.50,22.37 L 53.44,22.09 L 53.38,21.82 L 53.31,21.54 L 53.24,21.27 L 53.16,21.00 L 53.07,20.73 L 52.98,20.47 L 52.89,20.20 L 52.79,19.94 L 52.68,19.69 L 52.57,19.43 L 52.45,19.18 L 52.33,18.94 L 52.21,18.69 L 52.08,18.45 L 51.94,18.22 L 51.80,17.98 L 51.66,17.75 L 51.51,17.53 L 51.35,17.30 L 51.20,17.09 L 51.04,16.87 L 50.87,16.66 L 50.70,16.46 L 50.53,16.25 L 50.35,16.06 L 50.17,15.86 L 49.99,15.67 L 49.80,15.49 L 49.61,15.31 L 49.42,15.14 L 49.22,14.97 L 49.02,14.80 L 48.82,14.64 L 48.61,14.48 L 48.40,14.33 L 48.19,14.19 L 47.98,14.04 L 47.76,13.91 L 47.55,13.78 L 47.33,13.65 L 47.11,13.53 L 46.88,13.41 L 46.66,13.30 L 46.43,13.20 L 46.20,13.10 L 45.97,13.00 L 45.74,12.91 L 45.51,12.82 L 45.28,12.74 L 45.05,12.67 L 44.81,12.60 L 44.58,12.54 L 44.34,12.48 L 44.11,12.42 L 43.87,12.37 L 43.63,12.33 L 43.40,12.29 L 43.16,12.26 L 42.92,12.23 L 42.69,12.21 L 42.45,12.19 L 42.21,12.18 L 41.98,12.17 L 41.74,12.17 L 41.51,12.17 L 41.28,12.18 L 41.05,12.19 L 40.82,12.20 L 40.59,12.23 L 40.36,12.25 L 40.13,12.28 L 39.91,12.32 L 39.68,12.36 L 39.46,12.41 L 39.24,12.46 L 39.02,12.51 L 38.80,12.57 L 38.59,12.63 L 38.38,12.70 L 38.17,12.77 L 37.96,12.85 L 37.75,12.93 L 37.55,13.01 L 37.35,13.10 L 37.15,13.19 L 36.96,13.29 L 36.77,13.39 L 36.58,13.49 L 36.39,13.60 L 36.21,13.71 L 36.03,13.83 L 35.85,13.94 L 35.67,14.07 L 35.50,14.19 L 35.34,14.32 L 35.17,14.45 L 35.01,14.58 L 34.85,14.72 L 34.70,14.86 L 34.55,15.00 L 34.40,15.15 L 34.26,15.29 L 34.12,15.44 L 33.99,15.60 L 33.85,15.75 L 33.73,15.91 L 33.60,16.07 L 33.48,16.23 L 33.37,16.39 L 33.25,16.55 L 33.15,16.72 L 33.04,16.89 L 32.94,17.06 L 32.85,17.23 L 32.75,17.40 L 32.67,17.58 L 32.58,17.75 L 32.50,17.93 L 32.43,18.10 L 32.36,18.28 L 32.29,18.46 L 32.22,18.64 L 32.17,18.82 L 32.11,19.00 L 32.06,19.18 L 32.01,19.36 L 31.97,19.54 L 31.93,19.73 L 31.90,19.91 L 31.87,20.09 L 31.84,20.27 L 31.82,20.45 L 31.80,20.63 L 31.79,20.81 L 31.78,20.99 L 31.77,21.17 L 31.77,21.35 L 31.77,21.53 L 31.77,21.71 L 31.78,21.89 L 31.79,22.06 L 31.81,22.24 L 31.83,22.41 L 31.86,22.58 L 31.88,22.75 L 31.91,22.92 L 31.95,23.09 L 31.99,23.26 L 32.03,23.42 L 32.07,23.59 L 32.12,23.75 L 32.17,23.91 L 32.23,24.07 L 32.29,24.22 L 32.35,24.38 L 32.41,24.53 L 32.48,24.68 L 32.55,24.83 L 32.62,24.97 L 32.70,25.11 L 32.78,25.26 L 32.86,25.39 L 32.94,25.53 L 33.03,25.66 L 33.12,25.79 L 33.21,25.92 L 33.31,26.05 L 33.40,26.17 L 33.50,26.29 L 33.60,26.41 L 33.70,26.53 L 33.81,26.64 L 33.92,26.75 L 34.02,26.85 L 34.14,26.96 L 34.25,27.06 L 34.36,27.16 L 34.48,27.25 L 34.59,27.34 L 34.71,27.43 L 34.83,27.52 L 34.95,27.60 L 35.08,27.68 L 35.20,27.75 L 35.32,27.83 L 35.45,27.90 L 35.58,27.96 L 35.70,28.03 L 35.83,28.09 L 35.96,28.14 L 36.09,28.20 L 36.22,28.25 L 36.35,28.30 L 36.48,28.34 L 36.61,28.38 L 36.74,28.42 L 36.87,28.46 L 37.00,28.49 L 37.13,28.52 L 37.27,28.54 L 37.40,28.57 L 37.53,28.59 L 37.66,28.60 L 37.79,28.62 L 37.92,28.63 L 38.05,28.63 L 38.18,28.64 L 38.31,28.64 L 38.43,28.64 L 38.56,28.63 L 38.69,28.63 L 38.81,28.62 L 38.93,28.60 L 39.06,28.59 L 39.18,28.57 L 39.30,28.55 L 39.42,28.53 L 39.54,28.50 L 39.66,28.47 L 39.77,28.44 L 39.89,28.41 L 40.00,28.37 L 40.11,28.33 L 40.22,28.29 L 40.33,28.25 L 40.44,28.20 L 40.54,28.16 L 40.65,28.11 L 40.75,28.06 L 40.85,28.00 L 40.95,27.95 L 41.04,27.89 L 41.14,27.83 L 41.23,27.77 L 41.32,27.70 L 41.41,27.64 L 41.49,27.57 L 41.58,27.50 L 41.66,27.43 L 41.74,27.36 L 41.82,27.29 L 41.89,27.22 L 41.96,27.14 L 42.03,27.06 L 42.10,26.99 L 42.17,26.91 L 42.23,26.83 L 42.29,26.75 L 42.35,26.66 L 42.41,26.58 L 42.47,26.50 L 42.52,26.41 L 42.57,26.33 L 42.61,26.24 L 42.66,26.16 L 42.70,26.07 L 42.74,25.98 L 42.78,25.89 L 42.81,25.80 L 42.85,25.72 L 42.88,25.63 L 42.91,25.54 L 42.93,25.45 L 42.96,25.36 L 42.98,25.27 L 42.99,25.19 L 41.48,24.86 L 41.46,24.92 L 41.45,24.97 L 41.44,25.02 L 41.42,25.08 L 41.40,25.13 L 41.38,25.18 L 41.36,25.23 L 41.34,25.28 L 41.32,25.33 L 41.29,25.38 L 41.27,25.44 L 41.24,25.49 L 41.21,25.54 L 41.18,25.59 L 41.14,25.64 L 41.11,25.69 L 41.07,25.74 L 41.03,25.79 L 40.99,25.84 L 40.95,25.89 L 40.91,25.94 L 40.86,25.99 L 40.82,26.03 L 40.77,26.08 L 40.72,26.13 L 40.67,26.17 L 40.62,26.21 L 40.56,26.26 L 40.51,26.30 L 40.45,26.34 L 40.39,26.38 L 40.33,26.42 L 40.27,26.46 L 40.21,26.50 L 40.14,26.53 L 40.08,26.57 L 40.01,26.60 L 39.94,26.63 L 39.87,26.67 L 39.80,26.70 L 39.73,26.72 L 39.65,26.75 L 39.58,26.77 L 39.50,26.80 L 39.42,26.82 L 39.35,26.84 L 39.27,26.86 L 39.19,26.88 L 39.10,26.89 L 39.02,26.90 L 38.94,26.92 L 38.85,26.93 L 38.77,26.93 L 38.68,26.94 L 38.60,26.94 L 38.51,26.95 L 38.42,26.95 L 38.33,26.94 L 38.24,26.94 L 38.15,26.93 L 38.06,26.93 L 37.97,26.92 L 37.88,26.90 L 37.79,26.89 L 37.69,26.87 L 37.60,26.85 L 37.51,26.83 L 37.42,26.81 L 37.33,26.78 L 37.23,26.75 L 37.14,26.72 L 37.05,26.69 L 36.96,26.65 L 36.86,26.62 L 36.77,26.58 L 36.68,26.54 L 36.59,26.49 L 36.50,26.45 L 36.41,26.40 L 36.32,26.35 L 36.23,26.29 L 36.14,26.24 L 36.05,26.18 L 35.97,26.12 L 35.88,26.05 L 35.80,25.99 L 35.71,25.92 L 35.63,25.85 L 35.55,25.78 L 35.47,25.71 L 35.39,25.63 L 35.31,25.55 L 35.23,25.47 L 35.16,25.39 L 35.08,25.30 L 35.01,25.22 L 34.94,25.13 L 34.87,25.03 L 34.80,24.94 L 34.73,24.85 L 34.67,24.75 L 34.61,24.65 L 34.55,24.55 L 34.49,24.44 L 34.43,24.34 L 34.38,24.23 L 34.32,24.12 L 34.27,24.01 L 34.22,23.90 L 34.18,23.79 L 34.13,23.67 L 34.09,23.56 L 34.05,23.44 L 34.02,23.32 L 33.98,23.20 L 33.95,23.08 L 33.92,22.95 L 33.89,22.83 L 33.87,22.70 L 33.85,22.58 L 33.83,22.45 L 33.81,22.32 L 33.80,22.19 L 33.79,22.06 L 33.78,21.93 L 33.78,21.79 L 33.78,21.66 L 33.78,21.53 L 33.78,21.39 L 33.79,21.26 L 33.80,21.12 L 33.81,20.98 L 33.83,20.85 L 33.84,20.71 L 33.87,20.58 L 33.89,20.44 L 33.92,20.30 L 33.95,20.16 L 33.98,20.03 L 34.02,19.89 L 34.06,19.76 L 34.11,19.62 L 34.15,19.48 L 34.20,19.35 L 34.26,19.21 L 34.31,19.08 L 34.37,18.95 L 34.43,18.81 L 34.50,18.68 L 34.57,18.55 L 34.64,18.42 L 34.72,18.29 L 34.79,18.16 L 34.88,18.04 L 34.96,17.91 L 35.05,17.79 L 35.14,17.67 L 35.23,17.54 L 35.33,17.43 L 35.43,17.31 L 35.53,17.19 L 35.63,17.08 L 35.74,16.96 L 35.85,16.85 L 35.97,16.74 L 36.08,16.64 L 36.20,16.53 L 36.32,16.43 L 36.45,16.33 L 36.58,16.23 L 36.70,16.14 L 36.84,16.04 L 36.97,15.95 L 37.11,15.87 L 37.25,15.78 L 37.39,15.70 L 37.53,15.62 L 37.68,15.54 L 37.83,15.47 L 37.98,15.40 L 38.13,15.33 L 38.29,15.26 L 38.44,15.20 L 38.60,15.14 L 38.76,15.09 L 38.93,15.03 L 39.09,14.98 L 39.25,14.94 L 39.42,14.90 L 39.59,14.86 L 39.76,14.82 L 39.93,14.79 L 40.10,14.76 L 40.28,14.74 L 40.45,14.72 L 40.63,14.70 L 40.80,14.69 L 40.98,14.68 L 41.16,14.67 L 41.34,14.67 L 41.52,14.67 L 41.70,14.67 L 41.88,14.68 L 42.06,14.70 L 42.24,14.71 L 42.42,14.73 L 42.60,14.76 L 42.79,14.79 L 42.97,14.82 L 43.15,14.86 L 43.33,14.90 L 43.51,14.94 L 43.69,14.99 L 43.87,15.04 L 44.05,15.10 L 44.23,15.16 L 44.41,15.23 L 44.59,15.30 L 44.76,15.37 L 44.94,15.45 L 45.11,15.53 L 45.28,15.61 L 45.45,15.70 L 45.63,15.79 L 45.79,15.89 L 45.96,15.99 L 46.13,16.09 L 46.29,16.20 L 46.45,16.31 L 46.61,16.43 L 46.77,16.55 L 46.93,16.67 L 47.08,16.80 L 47.23,16.93 L 47.38,17.06 L 47.53,17.20 L 47.67,17.34 L 47.81,17.49 L 47.95,17.63 L 48.09,17.78 L 48.22,17.94 L 48.35,18.10 L 48.48,18.26 L 48.60,18.42 L 48.72,18.59 L 48.84,18.76 L 48.95,18.93 L 49.06,19.11 L 49.17,19.29 L 49.28,19.47 L 49.38,19.65 L 49.47,19.84 L 49.57,20.03 L 49.66,20.22 L 49.74,20.42 L 49.82,20.61 L 49.90,20.81 L 49.97,21.01 L 50.04,21.22 L 50.11,21.42 L 50.17,21.63 L 50.23,21.84 L 50.28,22.05 L 50.33,22.26 L 50.37,22.47 L 50.41,22.69 L 50.45,22.91 L 50.48,23.12 L 50.50,23.34 L 50.52,23.56 L 50.54,23.78 L 50.55,24.01 L 50.56,24.23 L 50.56,24.45 L 50.56,24.68 L 50.55,24.90 L 50.54,25.13 L 50.53,25.35 L 50.50,25.58 L 50.48,25.80 L 50.45,26.03 L 50.41,26.26 L 50.37,26.48 L 50.33,26.71 L 50.27,26.93 L 50.22,27.15 L 50.16,27.38 L 50.09,27.60 L 50.02,27.82 L 49.95,28.04 L 49.87,28.26 L 49.79,28.48 L 49.70,28.70 L 49.60,28.91 L 49.50,29.13 L 49.40,29.34 L 49.29,29.55 L 49.18,29.76 L 49.06,29.97 L 48.94,30.17 L 48.81,30.38 L 48.68,30.58 L 48.54,30.77 L 48.40,30.97 L 48.26,31.16 L 48.11,31.36 L 47.96,31.54 L 47.80,31.73 L 47.64,31.91 L 47.47,32.09 L 47.30,32.27 L 47.12,32.44 L 46.95,32.61 L 46.76,32.77 L 46.58,32.94 L 46.39,33.10 L 46.19,33.25 L 45.99,33.40 L 45.79,33.55 L 45.59,33.69 L 45.38,33.83 L 45.17,33.97 L 44.95,34.10 L 44.73,34.23 L 44.51,34.35 L 44.29,34.47 L 44.06,34.58 L 43.83,34.69 L 43.60,34.80 L 43.36,34.90 L 43.12,34.99 L 42.88,35.08 L 42.64,35.17 L 42.39,35.25 L 42.14,35.32 L 41.89,35.39 L 41.64,35.46 L 41.39,35.52 L 41.13,35.57 L 40.88,35.62 L 40.62,35.67 L 40.36,35.71 L 40.10,35.74 L 39.83,35.77 L 39.57,35.79 L 39.31,35.81 L 39.04,35.82 L 38.77,35.82 L 38.51,35.82 L 38.24,35.82 L 37.97,35.81 L 37.70,35.79 L 37.43,35.77 L 37.17,35.74 L 36.90,35.71 L 36.63,35.67 L 36.36,35.62 L 36.10,35.57 L 35.83,35.51 L 35.56,35.45 L 35.30,35.38 L 35.03,35.31 L 34.77,35.23 L 34.51,35.15 L 34.25,35.05 L 33.99,34.96 L 33.73,34.86 L 33.48,34.75 L 33.22,34.63 L 32.97,34.52 L 32.72,34.39 L 32.47,34.26 L 32.23,34.13 L 31.98,33.99 L 31.74,33.84 L 31.51,33.69 L 31.27,33.53 L 31.04,33.37 L 30.81,33.20 L 30.58,33.03 L 30.36,32.85 L 30.14,32.67 L 29.93,32.48 L 29.71,32.29 L 29.50,32.09 L 29.30,31.89 L 29.10,31.69 L 28.90,31.48 L 28.71,31.26 L 28.52,31.04 L 28.34,30.82 L 28.16,30.59 L 27.98,30.36 L 27.81,30.12 L 27.64,29.88 L 27.48,29.63 L 27.32,29.39 L 27.17,29.13 L 27.03,28.88 L 26.88,28.62 L 26.75,28.36 L 26.62,28.09 L 26.49,27.82 L 26.37,27.55 L 26.26,27.27 L 26.15,27.00 L 26.05,26.72 L 25.95,26.43 L 25.86,26.15 L 25.77,25.86 L 25.69,25.57 L 25.62,25.28 L 25.55,24.98 L 25.49,24.69 L 25.43,24.39 L 25.38,24.09 L 25.34,23.79 L 25.30,23.48 L 25.27,23.18 L 25.25,22.88 L 25.23,22.57 L 25.22,22.26 L 25.21,21.96 L 25.21,21.65 L 25.22,21.34 L 25.23,21.03 L 25.25,20.72 L 25.28,20.41 L 25.31,20.10 L 25.36,19.79 L 25.40,19.49 L 25.46,19.18 L 25.52,18.87 L 25.58,18.56 L 25.65,18.26 L 25.73,17.96 L 25.82,17.65 L 25.91,17.35 L 26.01,17.05 L 26.12,16.75 L 26.23,16.46 L 26.35,16.16 L 26.47,15.87 L 26.60,15.58 L 26.74,15.29 L 26.88,15.00 L 27.03,14.72 L 27.19,14.44 L 27.35,14.16 L 27.52,13.89 L 27.69,13.62 L 27.87,13.35 L 28.06,13.08 L 28.25,12.82 L 28.45,12.56 L 28.65,12.31 L 28.86,12.06 L 29.07,11.81 L 29.29,11.57 L 29.52,11.34 L 29.75,11.10 L 29.98,10.87 L 30.22,10.65 L 30.47,10.43 L 30.72,10.22 L 30.98,10.01 L 31.24,9.80 L 31.50,9.60 L 31.77,9.41 L 32.04,9.22 L 32.32,9.04 L 32.60,8.86 L 32.89,8.69 L 33.18,8.52 L 33.47,8.36 L 33.77,8.21 L 34.07,8.06 L 34.38,7.92 L 34.69,7.79 L 35.00,7.66 L 35.31,7.53 L 35.63,7.42 L 35.95,7.31 L 36.28,7.20 L 36.60,7.11 L 36.93,7.02 L 37.26,6.93 L 37.59,6.86 L 37.93,6.79 L 38.26,6.72 L 38.60,6.67 L 38.94,6.62 L 39.28,6.58 L 39.63,6.54 L 39.97,6.52 L 40.32,6.50 L 40.66,6.48 L 41.01,6.48 L 41.36,6.48 L 41.70,6.49 L 42.05,6.50 L 42.40,6.53 L 42.75,6.56 L 43.09,6.60 L 43.44,6.64 L 43.79,6.69 L 44.13,6.75 L 44.48,6.82 L 44.82,6.90 L 45.17,6.98 L 45.51,7.07 L 45.85,7.16 L 46.19,7.27 L 46.52,7.38 L 46.86,7.50 L 47.19,7.62 L 47.52,7.76 L 47.85,7.89 L 48.17,8.04 L 48.50,8.20 L 48.82,8.36 L 49.13,8.52 L 49.45,8.70 L 49.76,8.88 L 50.07,9.07 L 50.37,9.26 L 50.67,9.46 L 50.97,9.67 L 51.26,9.88 L 51.55,10.10 L 51.83,10.33 L 52.11,10.56 L 52.38,10.80 L 52.65,11.05 L 52.92,11.30 L 53.18,11.55 L 53.43,11.82 L 53.68,12.08 L 53.93,12.36 L 54.17,12.64 L 54.40,12.92 L 54.63,13.21 L 54.85,13.51 L 55.07,13.80 L 55.28,14.11 L 55.48,14.42 L 55.68,14.73 L 55.87,15.05 L 56.05,15.37 L 56.23,15.70 L 56.40,16.03 L 56.57,16.37 L 56.73,16.70 L 56.88,17.05 L 57.02,17.39 L 57.16,17.74 L 57.29,18.09 L 57.41,18.45 L 57.53,18.81 L 57.63,19.17 L 57.74,19.53 L 57.83,19.90 L 57.91,20.27 L 57.99,20.64 L 58.06,21.01 L 58.12,21.39 L 58.18,21.76 L 58.23,22.14 L 58.26,22.52 L 58.30,22.90 L 58.32,23.28 L 58.33,23.67 L 58.34,24.05 L 58.34,24.43 L 58.33,24.82 L 58.31,25.20 L 58.29,25.59 L 58.26,25.97 L 58.21,26.35 L 58.16,26.74 L 58.11,27.12 L 58.04,27.50 L 57.97,27.88 L 57.89,28.26 L 57.80,28.64 L 57.70,29.02 L 57.59,29.39 L 57.48,29.77 L 57.36,30.14 L 57.23,30.51 L 57.09,30.87 L 56.95,31.24 L 56.80,31.60 L 56.64,31.96 L 56.47,32.32 L 56.29,32.67 L 56.11,33.02 L 55.92,33.36 L 55.72,33.71 L 55.51,34.04 L 55.30,34.38 L 55.08,34.71 L 54.85,35.04 L 54.62,35.36 L 54.38,35.67 L 54.13,35.99 L 53.88,36.29 L 53.61,36.60 L 53.35,36.89 L 53.07,37.18 L 52.79,37.47 L 52.50,37.75 L 52.21,38.03 L 51.91,38.30 L 51.61,38.56 L 51.30,38.82 L 50.98,39.07 L 50.66,39.31 L 50.33,39.55 L 50.15,39.67 L 49.46,40.08 L 48.66,40.55 L 47.87,41.02 L 47.07,41.49 L 46.28,41.96 L 45.49,42.43 L 44.69,42.90 L 43.90,43.37 L 43.10,43.84 L 42.31,44.31 L 41.51,44.78 L 40.72,45.25 L 39.95,45.73 L 39.71,45.88 L 39.49,46.01 L 39.26,46.13 L 39.03,46.25 L 38.79,46.37 L 38.56,46.47 L 38.32,46.58 L 38.07,46.67 L 37.83,46.77 L 37.58,46.85 L 37.34,46.93 L 37.09,47.01 L 36.84,47.08 L 36.58,47.14 L 36.33,47.20 L 36.07,47.25 L 35.82,47.29 L 35.56,47.33 L 35.30,47.37 L 35.04,47.39 L 34.78,47.42 L 34.52,47.43 L 34.26,47.44 L 33.99,47.44 L 32.83,47.44 L 31.66,47.44 L 30.48,47.44 L 29.31,47.44 L 28.14,47.44 L 26.97,47.44 L 25.79,47.44 L 24.62,47.44 L 23.45,47.44 L 22.28,47.44 L 21.10,47.44 L 19.93,47.44 L 18.76,47.44 L 17.59,47.44 L 16.41,47.44 L 15.24,47.44 L 14.07,47.44 L 12.90,47.44 L 11.72,47.44 L 10.55,47.44 L 9.38,47.44 L 8.21,47.44 L 7.03,47.44 L 5.86,47.44 L 4.69,47.44 L 3.52,47.44 L 2.34,47.44 L 1.17,47.44 L 0.00,47.44 Z" fill="#B5824A"/></g><g transform="translate(218.96,111.12)"><path d="M4.0 0.0V-66.0H28.3L41.800000000000004 -19.1H42.0L55.2 -66.0H78.2V0.0H63.2V-49.7H63.0L48.1 0.0H33.9L19.200000000000003 -49.7H19.0V0.0Z M120.0 1.4000000000000001Q113.0 1.4000000000000001 107.4 -0.7999999999999999Q101.80000000000001 -3.0 97.9 -7.300000000000001Q94.0 -11.600000000000001 91.95 -18.0Q89.9 -24.400000000000002 89.9 -32.7Q89.9 -44.5 93.75 -52.150000000000006Q97.60000000000001 -59.800000000000004 104.55000000000001 -63.60000000000001Q111.5 -67.4 120.6 -67.4Q127.60000000000001 -67.4 133.15 -65.25Q138.7 -63.1 142.6 -58.8Q146.5 -54.5 148.55 -48.05Q150.60000000000002 -41.6 150.60000000000002 -33.1Q150.60000000000002 -24.5 148.45000000000002 -18.0Q146.3 -11.5 142.25 -7.2Q138.2 -2.9000000000000004 132.55 -0.7500000000000001Q126.9 1.4000000000000001 120.0 1.4000000000000001ZM120.6 -11.9Q125.1 -11.9 128.05 -14.150000000000002Q131.0 -16.400000000000002 132.45 -20.950000000000003Q133.9 -25.5 133.9 -32.4Q133.9 -39.7 132.35000000000002 -44.5Q130.8 -49.300000000000004 127.75 -51.75Q124.7 -54.2 120.1 -54.2Q115.7 -54.2 112.7 -51.85Q109.7 -49.5 108.2 -44.8Q106.7 -40.1 106.7 -33.1Q106.7 -27.8 107.55000000000001 -23.8Q108.4 -19.8 110.15 -17.15Q111.9 -14.5 114.5 -13.2Q117.10000000000001 -11.9 120.6 -11.9Z M162.3 0.0V-66.0H189.70000000000002Q194.10000000000002 -66.0 198.05 -65.25Q202.0 -64.5 205.25 -63.0Q208.5 -61.5 210.9 -59.2Q213.3 -56.900000000000006 214.60000000000002 -53.75Q215.9 -50.6 215.9 -46.6Q215.9 -43.5 214.85000000000002 -40.75Q213.8 -38.0 211.55 -35.8Q209.3 -33.6 205.75 -32.150000000000006Q202.20000000000002 -30.700000000000003 197.3 -30.1V-29.3Q203.70000000000002 -29.0 207.20000000000002 -26.8Q210.70000000000002 -24.6 212.45000000000002 -21.25Q214.20000000000002 -17.900000000000002 215.10000000000002 -14.0L218.60000000000002 0.0H200.70000000000002L198.20000000000002 -13.100000000000001Q197.60000000000002 -16.5 196.35000000000002 -18.6Q195.10000000000002 -20.700000000000003 192.8 -21.700000000000003Q190.5 -22.700000000000003 186.70000000000002 -22.700000000000003H178.5V0.0ZM178.5 -35.2H187.9Q193.4 -35.2 196.3 -37.300000000000004Q199.20000000000002 -39.400000000000006 199.20000000000002 -43.7Q199.20000000000002 -48.400000000000006 196.5 -50.7Q193.8 -53.0 188.3 -53.0H178.5Z M228.8 0.0V-66.0H245.0V0.0ZM240.9 0.0V-13.5H276.0V0.0ZM240.9 -27.200000000000003V-39.300000000000004H271.40000000000003V-27.200000000000003ZM240.9 -52.5V-66.0H276.0V-52.5Z M301.5 0.0V-66.0H317.7V0.0ZM285.2 -52.2V-66.0H334.0V-52.2Z" fill="#2C231B"/></g><path d="M219.82552115033704 145.79450698026076V138.1154411851661H221.25777158557707L223.6705627034045 144.1859795683758H223.49428572675959L225.90707684458704 138.1154411851661H227.32830996878675V145.79450698026076H226.35878659723966V139.23920691127753L226.4359077745218 139.25022422231783L224.0561685898153 145.1444856288826H223.1086798403488L220.71792334460199 139.25022422231783L220.79504452188414 139.23920691127753V145.79450698026076Z M230.72164176919821 145.79450698026076V138.1154411851661H235.77858753669955V138.98580875735044H231.6911651407453V141.44266911933912H235.40399896132908V142.31303669152345H231.6911651407453V144.92413940807643H235.77858753669955V145.79450698026076Z M238.81936538382118 145.79450698026076V138.1154411851661H239.84397531056982L243.77715535195975 144.53853352166567H243.55680913115359V138.1154411851661H244.52633250270068V145.79450698026076H243.47968795387143L239.5685425345621 139.3603973327209H239.78888875536828V145.79450698026076Z M250.65195744110852 145.92671471274446Q249.28581087211032 145.92671471274446 248.56417699897014 145.1885548730438Q247.84254312583 144.4503950333432 247.84254312583 143.01814459810316V138.1154411851661H248.8120664973771V142.90797148770008Q248.8120664973771 143.60206208323947 248.99385212954218 144.0758064579727Q249.17563776170724 144.54955083270596 249.58327827019863 144.79193167559274Q249.99091877869003 145.0343125184795 250.65195744110852 145.0343125184795Q251.31299610352698 145.0343125184795 251.72614526753853 144.7864230200726Q252.13929443155007 144.53853352166567 252.3265887192353 144.0647891469324Q252.51388300692057 143.59104477219918 252.51388300692057 142.89695417665976V138.1154411851661H253.47238906742734V142.96305804290162Q253.47238906742734 144.41734310022227 252.7507551942872 145.17202890648338Q252.02912132114702 145.92671471274446 250.65195744110852 145.92671471274446Z M256.79961700159697 145.79450698026076V138.1154411851661H257.76914037314407V145.79450698026076Z M263.5091594251411 145.91569740170416Q262.35234176590876 145.91569740170416 261.6141819262082 145.30974529448721Q260.87602208650753 144.70379318727026 260.7107624209029 143.70121788260226L261.6582511703694 143.46985435075578Q261.77944159181277 144.24106612357735 262.29174655518705 144.6431979765486Q262.8040515185614 145.04532982951983 263.542211358262 145.04532982951983Q263.97188648883406 145.04532982951983 264.3134231310836 144.8800701639152Q264.65495977333313 144.71481049831058 264.85327137205866 144.4118344447021Q265.05158297078424 144.10885839109363 265.05158297078424 143.72325250468288Q265.05158297078424 143.31561199619148 264.8312367499781 143.0511965312241Q264.6108905291719 142.78678106625668 264.21977598724095 142.58846946753113Q263.82866144531005 142.3901578688056 263.31084782641557 142.19184627008005Q262.6718437860777 141.94946542719327 262.1925907558243 141.66301534014528Q261.7133377255709 141.37656525309728 261.4489222606035 140.97443340012603Q261.18450679563614 140.57230154715478 261.18450679563614 139.98838406201847Q261.18450679563614 139.40446657688216 261.47095688268416 138.95275682422954Q261.75740696973213 138.5010470715769 262.2752205886266 138.24214026212965Q262.7930342075211 137.9832334526824 263.4761074920202 137.9832334526824Q264.2032500206805 137.9832334526824 264.7651328837362 138.31375278389166Q265.3270157467919 138.6442721151009 265.66855238904145 139.29429346647908L264.89734061621994 139.7680378412123Q264.64394246229284 139.3163280885597 264.28037119796267 139.07945590119306Q263.9167999336325 138.84258371382643 263.4430555588993 138.84258371382643Q263.0684669835288 138.84258371382643 262.77650824096065 138.98580875735044Q262.4845494983925 139.12903380087445 262.31928983278783 139.38243195480152Q262.15403016718324 139.6358301087286 262.15403016718324 139.96634943993786Q262.15403016718324 140.3189033932277 262.3523417659088 140.56679289163463Q262.55065336463434 140.81468239004155 262.9252419400048 141.00197667772682Q263.2998305153753 141.18927096541205 263.82866144531005 141.38758256413757Q264.50071741876883 141.64098071806467 264.9854791045424 141.93844811615298Q265.4702407903159 142.2359155142413 265.7401649108035 142.64906467825284Q266.01008903129105 143.06221384226438 266.01008903129105 143.66816594948133Q266.01008903129105 144.3181873008595 265.6905870111221 144.82498360871367Q265.37108499095314 145.33177991656783 264.80920212789744 145.623738659136Q264.24731926484174 145.91569740170416 263.5091594251411 145.91569740170416Z M269.028832256332 145.79450698026076V138.1154411851661H274.08577802383337V138.98580875735044H269.9983556278791V141.44266911933912H273.7111894484629V142.31303669152345H269.9983556278791V144.92413940807643H274.08577802383337V145.79450698026076Z M277.126555870955 145.79450698026076V138.1154411851661H279.41815656733905Q280.2995414505637 138.1154411851661 280.8614243136194 138.37434799461334Q281.4233071766751 138.63325480406058 281.6987399526828 139.11801648983413Q281.9741727286905 139.60277817560768 281.9741727286905 140.27483414906646Q281.9741727286905 141.23334020957327 281.4233071766751 141.78971441710883Q280.8724416246597 142.34608862464438 279.82579707583045 142.44524442400714Q279.6605374102258 142.45626173504746 279.42917387837934 142.45626173504746Q279.1978103465329 142.45626173504746 278.9774641257267 142.45626173504746H278.09607924250207V145.79450698026076ZM281.4233071766751 145.79450698026076 279.42917387837934 142.33507131360406 280.4207318720071 142.2138808921607 282.5360555917462 145.79450698026076ZM278.09607924250207 141.59691147390342H279.31900076797626Q279.82579707583045 141.59691147390342 280.2003856512009 141.46470374141973Q280.5749742265714 141.33249600893603 280.7898117918574 141.04604592188804Q281.0046493571434 140.75959583484 281.0046493571434 140.28585146010678Q281.0046493571434 139.80108977433324 280.7898117918574 139.52014834280538Q280.5749742265714 139.23920691127753 280.1948769956808 139.112507834314Q279.81477976479016 138.98580875735044 279.31900076797626 138.98580875735044H278.09607924250207Z M285.36750452910195 145.79450698026076V138.1154411851661H286.33702790064905V145.79450698026076Z M289.7303597010605 145.79450698026076V138.1154411851661H294.78730546856184V138.98580875735044H290.6998830726076V141.44266911933912H294.4127168931914V142.31303669152345H290.6998830726076V144.92413940807643H294.78730546856184V145.79450698026076Z M318.76097429227195 145.79450698026076V138.1154411851661H323.8179200597733V138.98580875735044H319.73049766381905V141.44266911933912H323.44333148440285V142.31303669152345H319.73049766381905V144.92413940807643H323.8179200597733V145.79450698026076ZM320.94240187825295 137.4213505896267 322.1432887816465 135.86790973294328H323.14586408631453L321.6364924737923 137.4213505896267Z M326.8586979068949 145.79450698026076V138.1154411851661H329.3155582688836Q330.4062720618741 138.1154411851661 331.02875013565153 138.6222374930203Q331.6512282094289 139.12903380087445 331.6512282094289 140.0324533061797Q331.6512282094289 140.6053534802757 331.3978300555018 141.03502861084772Q331.14443190157476 141.46470374141973 330.6817048378818 141.6850499622259Q331.3537608113406 141.87234424991112 331.7008061091103 142.368123246725Q332.04785140688 142.86390224353886 332.04785140688 143.62409670532008Q332.04785140688 144.65972394310904 331.403338711022 145.2271154616849Q330.75882601516395 145.79450698026076 329.579973733851 145.79450698026076ZM327.828221278442 144.90210478599582H329.5138698676092Q331.0893453463732 144.90210478599582 331.0893453463732 143.58002746115886Q331.0893453463732 142.9520407318613 330.7312827375632 142.60499543409162Q330.3732201287532 142.2579501363219 329.723198777375 142.2579501363219H327.828221278442ZM327.828221278442 141.38758256413757H329.46980062344795Q330.0206661754633 141.38758256413757 330.3566941621927 141.06257188844847Q330.6927221489221 140.7375612127594 330.6927221489221 140.1756783497037Q330.6927221489221 139.62481279768832 330.32915088459197 139.3163280885597Q329.9655796202618 139.00784337943105 329.3155582688836 139.00784337943105H327.828221278442Z M335.1326984981628 145.79450698026076V138.1154411851661H340.1896442656642V138.98580875735044H336.1022218697099V141.44266911933912H339.8150556902937V142.31303669152345H336.1022218697099V144.92413940807643H340.1896442656642V145.79450698026076ZM337.3141260841438 137.4213505896267 338.5150129875374 135.86790973294328H339.5175882922054L338.0082166796832 137.4213505896267Z M343.2304221127858 145.79450698026076V138.1154411851661H344.25503203953446L348.1882120809244 144.53853352166567H347.96786586011825V138.1154411851661H348.93738923166535V145.79450698026076H347.8907446828361L343.9795992635268 139.3603973327209H344.1999454843329V145.79450698026076Z M352.3307210320768 145.79450698026076V138.1154411851661H353.3002444036239V145.79450698026076Z M359.0402634556209 145.91569740170416Q357.88344579638857 145.91569740170416 357.145285956688 145.30974529448721Q356.40712611698734 144.70379318727026 356.2418664513827 143.70121788260226L357.1893552008492 143.46985435075578Q357.3105456222926 144.24106612357735 357.82285058566686 144.6431979765486Q358.3351555490412 145.04532982951983 359.07331538874183 145.04532982951983Q359.50299051931387 145.04532982951983 359.8445271615634 144.8800701639152Q360.18606380381294 144.71481049831058 360.38437540253847 144.4118344447021Q360.58268700126405 144.10885839109363 360.58268700126405 143.72325250468288Q360.58268700126405 143.31561199619148 360.3623407804579 143.0511965312241Q360.1419945596517 142.78678106625668 359.75088001772076 142.58846946753113Q359.35976547578986 142.3901578688056 358.8419518568954 142.19184627008005Q358.2029478165575 141.94946542719327 357.7236947863041 141.66301534014528Q357.2444417560507 141.37656525309728 356.98002629108333 140.97443340012603Q356.71561082611595 140.57230154715478 356.71561082611595 139.98838406201847Q356.71561082611595 139.40446657688216 357.002060913164 138.95275682422954Q357.28851100021194 138.5010470715769 357.8063246191064 138.24214026212965Q358.3241382380009 137.9832334526824 359.00721152250003 137.9832334526824Q359.7343540511603 137.9832334526824 360.296236914216 138.31375278389166Q360.8581197772717 138.6442721151009 361.19965641952126 139.29429346647908L360.42844464669975 139.7680378412123Q360.17504649277265 139.3163280885597 359.8114752284425 139.07945590119306Q359.4479039641123 138.84258371382643 358.9741595893791 138.84258371382643Q358.59957101400863 138.84258371382643 358.30761227144046 138.98580875735044Q358.0156535288723 139.12903380087445 357.85039386326764 139.38243195480152Q357.68513419766305 139.6358301087286 357.68513419766305 139.96634943993786Q357.68513419766305 140.3189033932277 357.8834457963886 140.56679289163463Q358.08175739511415 140.81468239004155 358.4563459704846 141.00197667772682Q358.8309345458551 141.18927096541205 359.35976547578986 141.38758256413757Q360.03182144924864 141.64098071806467 360.5165831350222 141.93844811615298Q361.00134482079574 142.2359155142413 361.2712689412833 142.64906467825284Q361.54119306177085 143.06221384226438 361.54119306177085 143.66816594948133Q361.54119306177085 144.3181873008595 361.2216910416019 144.82498360871367Q360.90218902143295 145.33177991656783 360.34030615837725 145.623738659136Q359.77842329532155 145.91569740170416 359.0402634556209 145.91569740170416Z M366.4328791636642 145.79450698026076V138.98580875735044H363.8548283802321V138.1154411851661H369.98045331864336V138.98580875735044H367.4134198462516V145.79450698026076Z M372.67969452351537 145.79450698026076V138.1154411851661H377.7366402910167V138.98580875735044H373.64921789506246V141.44266911933912H377.36205171564626V142.31303669152345H373.64921789506246V144.92413940807643H377.7366402910167V145.79450698026076Z M380.77741813813833 145.79450698026076V138.1154411851661H383.0690188345224Q383.95040371774707 138.1154411851661 384.51228658080277 138.37434799461334Q385.07416944385847 138.63325480406058 385.34960221986614 139.11801648983413Q385.6250349958739 139.60277817560768 385.6250349958739 140.27483414906646Q385.6250349958739 141.23334020957327 385.07416944385847 141.78971441710883Q384.52330389184306 142.34608862464438 383.4766593430138 142.44524442400714Q383.31139967740916 142.45626173504746 383.0800361455627 142.45626173504746Q382.84867261371625 142.45626173504746 382.6283263929101 142.45626173504746H381.7469415096854V145.79450698026076ZM385.07416944385847 145.79450698026076 383.0800361455627 142.33507131360406 384.07159413919044 142.2138808921607 386.1869178589296 145.79450698026076ZM381.7469415096854 141.59691147390342H382.9698630351596Q383.4766593430138 141.59691147390342 383.8512479183843 141.46470374141973Q384.22583649375474 141.33249600893603 384.44067405904076 141.04604592188804Q384.6555116243268 140.75959583484 384.6555116243268 140.28585146010678Q384.6555116243268 139.80108977433324 384.44067405904076 139.52014834280538Q384.22583649375474 139.23920691127753 383.84573926286413 139.112507834314Q383.4656420319735 138.98580875735044 382.9698630351596 138.98580875735044H381.7469415096854Z M389.0183667962853 145.79450698026076V138.1154411851661H389.9878901678324V145.79450698026076Z M393.38122196824384 145.79450698026076V138.1154411851661H398.4381677357452V138.98580875735044H394.35074533979093V141.44266911933912H398.06357916037473V142.31303669152345H394.35074533979093V144.92413940807643H398.4381677357452V145.79450698026076Z M421.72876327495624 145.79450698026076 424.65936801167817 138.1154411851661H425.4305797844997L428.3611845212216 145.79450698026076H427.3035226613521L425.0559912091292 139.50362237624492L422.7974424458661 145.79450698026076ZM423.3593253089218 143.98766796965026 423.65679270701014 143.11730039746593H426.4331550891677L426.75265710933667 143.98766796965026Z M434.255445927783 145.92671471274446Q433.21981868999404 145.92671471274446 432.432080950612 145.43093571593062Q431.64434321122997 144.93515671911675 431.20365076961764 144.03724586933163Q430.76295832800537 143.13933501954654 430.76295832800537 141.94946542719327Q430.76295832800537 140.75959583484 431.20915942513784 139.86719364057507Q431.6553605222703 138.97479144631015 432.4541155726927 138.47901244949628Q433.252870623115 137.9832334526824 434.3105324829845 137.9832334526824Q435.46735014221684 137.9832334526824 436.31568309232057 138.55613362677843Q437.1640160424243 139.12903380087445 437.53860461779476 140.14262641658277L436.6351851124895 140.48416305883234Q436.3487350254415 139.73498590809137 435.75380022926487 139.32183674407983Q435.15886543308824 138.9086875800683 434.3105324829845 138.9086875800683Q433.52830339912265 138.9086875800683 432.94438591398637 139.28327615543876Q432.36046842885 139.65786473080922 432.0464750642012 140.33542935978818Q431.73248169955247 141.0129939887671 431.73248169955247 141.94946542719327Q431.73248169955247 142.88593686561947 432.0464750642012 143.56901015011857Q432.36046842885 144.25208343461765 432.94438591398637 144.6266720099881Q433.52830339912265 145.00126058535858 434.3105324829845 145.00126058535858Q434.7071556804356 145.00126058535858 435.1258134999673 144.8910874749555Q435.544471319499 144.78091436455244 435.8970252727888 144.50548158854474Q436.2495792260787 144.23004881253704 436.4644167913647 143.75079578228363Q436.67925435665074 143.27154275203023 436.67925435665074 142.5333829123296V141.9715000492739L436.8996005774569 142.63253871169238H434.74020761355655V141.76217113950804H437.53860461779476V145.79450698026076H436.67925435665074L436.547046624167 144.29615267877887L436.7123062897717 144.41734310022227Q436.5139946910461 144.94617403015704 436.1394061156756 145.27669336136628Q435.76481754030516 145.60721269257553 435.27454719901147 145.76696370266Q434.78427685771777 145.92671471274446 434.255445927783 145.92671471274446Z M440.7887113746822 145.79450698026076V138.1154411851661H445.84565714218354V138.98580875735044H441.7582347462293V141.44266911933912H445.4710685668131V142.31303669152345H441.7582347462293V144.92413940807643H445.84565714218354V145.79450698026076Z M448.88643498930514 145.79450698026076V138.1154411851661H449.9110449160538L453.84422495744377 144.53853352166567H453.6238787366376V138.1154411851661H454.5934021081847V145.79450698026076H453.54675755935546L449.63561214004613 139.3603973327209H449.85595836085224V145.79450698026076Z M461.2148060434064 145.92671471274446Q460.15714418353684 145.92671471274446 459.35838913311454 145.43093571593062Q458.5596340826922 144.93515671911675 458.1134329855597 144.03724586933163Q457.66723188842724 143.13933501954654 457.66723188842724 141.94946542719327Q457.66723188842724 140.75959583484 458.1134329855597 139.86719364057507Q458.5596340826922 138.97479144631015 459.35838913311454 138.47901244949628Q460.15714418353684 137.9832334526824 461.2148060434064 137.9832334526824Q462.3716237026387 137.9832334526824 463.21995665274244 138.55613362677843Q464.06828960284616 139.12903380087445 464.44287817821663 140.14262641658277L463.5394586729114 140.48416305883234Q463.25300858586337 139.73498590809137 462.65807378968674 139.32183674407983Q462.0631389935101 138.9086875800683 461.2148060434064 138.9086875800683Q460.4325769595445 138.9086875800683 459.84865947440824 139.28327615543876Q459.2647419892719 139.65786473080922 458.9507486246231 140.33542935978818Q458.63675525997434 141.0129939887671 458.63675525997434 141.94946542719327Q458.63675525997434 142.88593686561947 458.9507486246231 143.56901015011857Q459.2647419892719 144.25208343461765 459.84865947440824 144.6266720099881Q460.4325769595445 145.00126058535858 461.2148060434064 145.00126058535858Q462.0631389935101 145.00126058535858 462.65807378968674 144.5826027658269Q463.25300858586337 144.16394494629517 463.5394586729114 143.42578510659456L464.44287817821663 143.75630443780378Q464.06828960284616 144.7588797424718 463.21995665274244 145.34279722760812Q462.3716237026387 145.92671471274446 461.2148060434064 145.92671471274446Z M467.39551753701573 145.79450698026076V138.1154411851661H472.4524633045171V138.98580875735044H468.36504090856283V141.44266911933912H472.07787472914663V142.31303669152345H468.36504090856283V144.92413940807643H472.4524633045171V145.79450698026076Z M475.4932411516387 145.79450698026076V138.1154411851661H476.92549158687876L479.3382827047062 144.1859795683758H479.1620057280613L481.5747968458887 138.1154411851661H482.99602997008844V145.79450698026076H482.02650659854135V139.23920691127753L482.1036277758235 139.25022422231783L479.723888591117 145.1444856288826H478.7763998416505L476.38564334590365 139.25022422231783L476.4627645231858 139.23920691127753V145.79450698026076Z M486.3893617704999 145.79450698026076V138.1154411851661H491.44630753800124V138.98580875735044H487.358885142047V141.44266911933912H491.07171896263077V142.31303669152345H487.358885142047V144.92413940807643H491.44630753800124V145.79450698026076Z M494.48708538512284 145.79450698026076V138.1154411851661H495.5116953118715L499.44487535326147 144.53853352166567H499.2245291324553V138.1154411851661H500.1940525040024V145.79450698026076H499.14740795517315L495.23626253586383 139.3603973327209H495.45660875666994V145.79450698026076Z M505.4603271812662 145.79450698026076V138.98580875735044H502.8822763978341V138.1154411851661H509.00790133624537V138.98580875735044H506.4408678638536V145.79450698026076Z" fill="#2C231B"/><polygon points="301.94,138.43 306.60,140.54 311.25,138.43 311.25,145.48 306.60,143.37 301.94,145.48" fill="#B5824A"/><polygon points="405.60,138.43 410.25,140.54 414.90,138.43 414.90,145.48 410.25,143.37 405.60,145.48" fill="#B5824A"/></svg>